<mxfile host="app.diagrams.net" modified="2020-04-29T11:50:44.573Z" agent="5.0 (X11; Linux x86_64) AppleWebKit/537.36 (KHTML, like Gecko) Chrome/80.0.3987.149 Safari/537.36" etag="5YUFV-22gX6Q07rYSVHg" version="12.9.11" type="github">
  <diagram name="Page-1" id="e7e014a7-5840-1c2e-5031-d8a46d1fe8dd">
    <mxGraphModel dx="2296" dy="645" grid="1" gridSize="10" guides="1" tooltips="1" connect="1" arrows="1" fold="1" page="1" pageScale="1" pageWidth="1169" pageHeight="826" background="#ffffff" math="0" shadow="0">
      <root>
        <mxCell id="0" />
        <mxCell id="1" parent="0" />
        <mxCell id="2" value="ESP32" style="swimlane;whiteSpace=wrap;startSize=23;" parent="1" vertex="1">
          <mxGeometry x="-175" y="120" width="420" height="570" as="geometry" />
        </mxCell>
        <mxCell id="7" value="server" style="fillColor=#e1d5e7;strokeColor=#9673a6;rounded=1;" parent="2" vertex="1">
          <mxGeometry x="220" y="110" width="110" height="50" as="geometry" />
        </mxCell>
        <mxCell id="mlgsU4gfoJJG3dl1iYJq-49" style="edgeStyle=orthogonalEdgeStyle;rounded=0;orthogonalLoop=1;jettySize=auto;html=1;exitX=0.318;exitY=1.04;exitDx=0;exitDy=0;exitPerimeter=0;fillColor=#d80073;strokeColor=#A50040;" edge="1" parent="2" source="8" target="10">
          <mxGeometry relative="1" as="geometry">
            <Array as="points">
              <mxPoint x="255" y="400" />
              <mxPoint x="255" y="400" />
            </Array>
          </mxGeometry>
        </mxCell>
        <mxCell id="mlgsU4gfoJJG3dl1iYJq-52" value="When its time to water the plants:&lt;br&gt;Create a &lt;b&gt;one-shot&lt;/b&gt; TASK" style="edgeLabel;html=1;align=center;verticalAlign=middle;resizable=0;points=[];" vertex="1" connectable="0" parent="mlgsU4gfoJJG3dl1iYJq-49">
          <mxGeometry x="-0.2037" y="2" relative="1" as="geometry">
            <mxPoint x="3.01" y="15" as="offset" />
          </mxGeometry>
        </mxCell>
        <mxCell id="8" value="Frequency task" style="fillColor=#ffe6cc;strokeColor=#d79b00;rounded=1;" parent="2" vertex="1">
          <mxGeometry x="220" y="270" width="110" height="50" as="geometry" />
        </mxCell>
        <mxCell id="10" value="Water the plant TASK" style="fillColor=#d80073;strokeColor=#A50040;fontColor=#ffffff;rounded=1;" parent="2" vertex="1">
          <mxGeometry x="210" y="430" width="130" height="50" as="geometry" />
        </mxCell>
        <mxCell id="mlgsU4gfoJJG3dl1iYJq-48" style="edgeStyle=orthogonalEdgeStyle;rounded=0;orthogonalLoop=1;jettySize=auto;html=1;entryX=0.5;entryY=1;entryDx=0;entryDy=0;" edge="1" parent="2" source="8" target="8">
          <mxGeometry relative="1" as="geometry" />
        </mxCell>
        <mxCell id="mlgsU4gfoJJG3dl1iYJq-51" value="&lt;b&gt;Run indefinetly&lt;/b&gt;" style="edgeLabel;html=1;align=center;verticalAlign=middle;resizable=0;points=[];" vertex="1" connectable="0" parent="mlgsU4gfoJJG3dl1iYJq-48">
          <mxGeometry x="-0.5143" relative="1" as="geometry">
            <mxPoint as="offset" />
          </mxGeometry>
        </mxCell>
        <mxCell id="mlgsU4gfoJJG3dl1iYJq-57" style="edgeStyle=orthogonalEdgeStyle;rounded=0;orthogonalLoop=1;jettySize=auto;html=1;entryX=0;entryY=0.5;entryDx=0;entryDy=0;" edge="1" parent="2" source="mlgsU4gfoJJG3dl1iYJq-53" target="7">
          <mxGeometry relative="1" as="geometry">
            <Array as="points">
              <mxPoint x="180" y="190" />
              <mxPoint x="180" y="135" />
            </Array>
          </mxGeometry>
        </mxCell>
        <mxCell id="mlgsU4gfoJJG3dl1iYJq-58" style="edgeStyle=orthogonalEdgeStyle;rounded=0;orthogonalLoop=1;jettySize=auto;html=1;entryX=0;entryY=0.5;entryDx=0;entryDy=0;" edge="1" parent="2" source="mlgsU4gfoJJG3dl1iYJq-53" target="8">
          <mxGeometry relative="1" as="geometry">
            <Array as="points">
              <mxPoint x="180" y="220" />
              <mxPoint x="180" y="295" />
            </Array>
          </mxGeometry>
        </mxCell>
        <mxCell id="mlgsU4gfoJJG3dl1iYJq-53" value="Initiate sequence" style="rounded=1;whiteSpace=wrap;html=1;" vertex="1" parent="2">
          <mxGeometry x="20" y="170" width="120" height="60" as="geometry" />
        </mxCell>
        <mxCell id="mlgsU4gfoJJG3dl1iYJq-55" style="edgeStyle=orthogonalEdgeStyle;rounded=0;orthogonalLoop=1;jettySize=auto;html=1;fillColor=#0050ef;strokeColor=#001DBC;" edge="1" parent="2" source="mlgsU4gfoJJG3dl1iYJq-54" target="mlgsU4gfoJJG3dl1iYJq-53">
          <mxGeometry relative="1" as="geometry" />
        </mxCell>
        <mxCell id="mlgsU4gfoJJG3dl1iYJq-56" value="Power on" style="edgeLabel;html=1;align=center;verticalAlign=middle;resizable=0;points=[];" vertex="1" connectable="0" parent="mlgsU4gfoJJG3dl1iYJq-55">
          <mxGeometry x="-0.28" y="2" relative="1" as="geometry">
            <mxPoint as="offset" />
          </mxGeometry>
        </mxCell>
        <mxCell id="mlgsU4gfoJJG3dl1iYJq-54" value="" style="ellipse;shape=startState;fillColor=#000000;strokeColor=#6666FF;" vertex="1" parent="2">
          <mxGeometry x="65" y="40" width="30" height="30" as="geometry" />
        </mxCell>
        <mxCell id="3" value="Client" style="swimlane;whiteSpace=wrap" parent="1" vertex="1">
          <mxGeometry x="580" y="120" width="280" height="570" as="geometry" />
        </mxCell>
        <mxCell id="mlgsU4gfoJJG3dl1iYJq-62" style="edgeStyle=orthogonalEdgeStyle;rounded=0;orthogonalLoop=1;jettySize=auto;html=1;entryX=0.5;entryY=0;entryDx=0;entryDy=0;fillColor=#aa00ff;strokeColor=#7700CC;" edge="1" parent="3" source="13" target="mlgsU4gfoJJG3dl1iYJq-61">
          <mxGeometry relative="1" as="geometry">
            <Array as="points">
              <mxPoint x="75" y="110" />
              <mxPoint x="150" y="110" />
            </Array>
          </mxGeometry>
        </mxCell>
        <mxCell id="13" value="" style="ellipse;shape=startState;fillColor=#000000;strokeColor=#ff0000;" parent="3" vertex="1">
          <mxGeometry x="60" y="40" width="30" height="30" as="geometry" />
        </mxCell>
        <mxCell id="mlgsU4gfoJJG3dl1iYJq-61" value="" style="rounded=1;whiteSpace=wrap;html=1;strokeColor=#6666FF;" vertex="1" parent="3">
          <mxGeometry x="130" y="150" width="40" height="30" as="geometry" />
        </mxCell>
        <mxCell id="mlgsU4gfoJJG3dl1iYJq-63" value="User typed Servers ip: &lt;br&gt;&lt;font color=&quot;#ff0000&quot;&gt;192.168.4.1, &lt;/font&gt;&lt;br&gt;then &lt;b&gt;ENTER&lt;/b&gt;" style="text;html=1;align=center;verticalAlign=middle;resizable=0;points=[];autosize=1;" vertex="1" parent="3">
          <mxGeometry x="100" y="50" width="130" height="50" as="geometry" />
        </mxCell>
        <mxCell id="mlgsU4gfoJJG3dl1iYJq-65" value="Client receives the &lt;b&gt;HTML&lt;/b&gt; code,&lt;br&gt;in &lt;i&gt;&amp;lt;head&amp;gt;&lt;/i&gt; section, its points that &lt;b&gt;CSS&lt;/b&gt; is in other file." style="rounded=1;whiteSpace=wrap;html=1;strokeColor=#6666FF;" vertex="1" parent="3">
          <mxGeometry x="60" y="200" width="180" height="80" as="geometry" />
        </mxCell>
        <mxCell id="mlgsU4gfoJJG3dl1iYJq-44" style="edgeStyle=orthogonalEdgeStyle;rounded=0;orthogonalLoop=1;jettySize=auto;html=1;exitX=0;exitY=0.5;exitDx=0;exitDy=0;fillColor=#f8cecc;strokeColor=#b85450;entryX=1;entryY=0.25;entryDx=0;entryDy=0;" edge="1" parent="1" source="mlgsU4gfoJJG3dl1iYJq-61" target="7">
          <mxGeometry relative="1" as="geometry">
            <mxPoint x="30" y="243" as="targetPoint" />
            <Array as="points">
              <mxPoint x="380" y="285" />
              <mxPoint x="380" y="243" />
            </Array>
          </mxGeometry>
        </mxCell>
        <mxCell id="mlgsU4gfoJJG3dl1iYJq-45" value="&lt;pre style=&quot;font-family: &amp;#34;jetbrains mono&amp;#34; ; font-size: 9.8pt&quot;&gt;&quot;/&quot;, HTTP_GET&lt;/pre&gt;" style="text;html=1;align=center;verticalAlign=middle;resizable=0;points=[];autosize=1;" vertex="1" parent="1">
          <mxGeometry x="395" y="245" width="100" height="50" as="geometry" />
        </mxCell>
        <mxCell id="mlgsU4gfoJJG3dl1iYJq-46" style="edgeStyle=orthogonalEdgeStyle;rounded=0;orthogonalLoop=1;jettySize=auto;html=1;fillColor=#e1d5e7;strokeColor=#9673a6;exitX=1;exitY=0.5;exitDx=0;exitDy=0;entryX=-0.008;entryY=0.371;entryDx=0;entryDy=0;entryPerimeter=0;" edge="1" parent="1" source="7" target="mlgsU4gfoJJG3dl1iYJq-65">
          <mxGeometry relative="1" as="geometry">
            <mxPoint x="630" y="340" as="targetPoint" />
            <Array as="points">
              <mxPoint x="320" y="255" />
              <mxPoint x="320" y="350" />
              <mxPoint x="630" y="350" />
            </Array>
          </mxGeometry>
        </mxCell>
        <mxCell id="mlgsU4gfoJJG3dl1iYJq-47" value="&lt;b&gt;response(html,OK),&lt;/b&gt; &lt;br&gt;thus sending back the WHOLE html code" style="text;html=1;align=center;verticalAlign=middle;resizable=0;points=[];autosize=1;" vertex="1" parent="1">
          <mxGeometry x="330" y="320" width="230" height="30" as="geometry" />
        </mxCell>
        <mxCell id="mlgsU4gfoJJG3dl1iYJq-68" style="edgeStyle=orthogonalEdgeStyle;rounded=0;orthogonalLoop=1;jettySize=auto;html=1;entryX=1;entryY=0.75;entryDx=0;entryDy=0;fillColor=#008a00;strokeColor=#005700;exitX=0;exitY=0.75;exitDx=0;exitDy=0;" edge="1" parent="1" source="mlgsU4gfoJJG3dl1iYJq-65" target="7">
          <mxGeometry relative="1" as="geometry">
            <Array as="points">
              <mxPoint x="300" y="380" />
              <mxPoint x="300" y="268" />
            </Array>
          </mxGeometry>
        </mxCell>
        <mxCell id="mlgsU4gfoJJG3dl1iYJq-69" value="&lt;pre style=&quot;font-family: &amp;#34;jetbrains mono&amp;#34; ; font-size: 9.8pt&quot;&gt;&lt;span&gt;&quot;/style.css&quot;&lt;/span&gt;, HTTP_GET&lt;/pre&gt;" style="edgeLabel;html=1;align=center;verticalAlign=middle;resizable=0;points=[];" vertex="1" connectable="0" parent="mlgsU4gfoJJG3dl1iYJq-68">
          <mxGeometry x="-0.4626" y="-1" relative="1" as="geometry">
            <mxPoint x="-29.17" y="1" as="offset" />
          </mxGeometry>
        </mxCell>
      </root>
    </mxGraphModel>
  </diagram>
</mxfile>
